<svg xmlns="http://www.w3.org/2000/svg" viewBox="0 0 320 64" role="img" aria-label="Dzidzo SMS  wordmark option 1">
  <defs>
    <linearGradient id="lo1g" x1="0%" y1="0%" x2="100%" y2="100%">
      <stop offset="0%" stop-color="#34d399"/>
      <stop offset="100%" stop-color="#059669"/>
    </linearGradient>
  </defs>
  <rect x="2" y="6" width="52" height="52" rx="14" fill="#0f172a"/>
  <path fill="url(#lo1g)" d="M16 22c0-1.7 1.3-3 3-3h14v26H19c-1.7 0-3-1.3-3-3V22zm20-3h14c1.7 0 3 1.3 3 3v18c0 1.7-1.3 3-3 3H36V19z"/>
  <path fill="#ecfdf5" d="M24 24h6v2h-6v-2zm0 6h9v2h-9v-2zm0 6h8v2h-8v-2zm14-12h6v2h-6v-2zm0 6h8v2h-8v-2z" opacity=".88"/>
  <text x="68" y="42" font-family="system-ui, Segoe UI, sans-serif" font-size="28" font-weight="700" fill="#f8fafc">Dzidzo</text>
  <text x="188" y="42" font-family="system-ui, Segoe UI, sans-serif" font-size="28" font-weight="600" fill="#34d399">SMS</text>
  <text x="68" y="56" font-family="system-ui, Segoe UI, sans-serif" font-size="11" font-weight="500" fill="#94a3b8">School Management</text>
</svg>
