<?xml version="1.0" standalone="no"?>
<!DOCTYPE svg PUBLIC "-//W3C//DTD SVG 20010904//EN"
 "http://www.w3.org/TR/2001/REC-SVG-20010904/DTD/svg10.dtd">
<svg version="1.0" xmlns="http://www.w3.org/2000/svg"
 width="1920.000000pt" height="1916.000000pt" viewBox="0 0 1920.000000 1916.000000"
 preserveAspectRatio="xMidYMid meet">
<metadata>
Created by potrace 1.16, written by Peter Selinger 2001-2019
</metadata>
<g transform="translate(0.000000,1916.000000) scale(0.100000,-0.100000)"
fill="#ffffff" stroke="none">
<path d="M4171 12541 c-47 -8 -95 -53 -127 -121 -128 -266 -370 -756 -1277
-2580 -234 -470 -440 -889 -460 -930 -34 -75 -300 -617 -362 -740 -107 -209
-405 -819 -405 -826 0 -4 -81 -169 -180 -368 -99 -199 -180 -364 -180 -368 0
-5 205 -8 455 -8 l455 0 86 178 c47 97 96 197 110 222 13 25 39 77 56 115 18
39 56 115 84 170 80 155 96 187 197 395 339 698 404 829 423 851 8 8 14 19 14
24 0 8 57 133 87 190 52 102 134 266 403 810 166 336 421 849 566 1142 145
293 264 534 264 537 0 12 103 183 118 194 28 22 79 15 107 -15 14 -15 25 -33
25 -39 0 -7 29 -68 64 -135 34 -68 100 -203 146 -299 45 -96 122 -256 171
-355 186 -379 369 -757 369 -761 0 -7 174 -366 216 -446 28 -55 35 -76 32
-114 -3 -45 -5 -48 -43 -61 -22 -8 -69 -16 -105 -19 -36 -3 -79 -10 -96 -15
-17 -5 -71 -16 -120 -24 -117 -18 -201 -38 -298 -69 -43 -15 -86 -26 -95 -26
-8 0 -33 -6 -56 -14 -22 -8 -65 -21 -95 -30 -108 -32 -183 -57 -224 -76 -22
-10 -93 -40 -156 -65 -240 -97 -587 -284 -718 -388 -140 -111 -245 -357 -213
-500 6 -29 28 -77 47 -106 96 -142 205 -197 315 -159 31 10 130 66 324 183
187 112 483 242 710 311 44 13 104 33 133 44 47 18 138 41 312 80 97 21 366
60 625 91 149 18 559 23 705 9 69 -6 175 -15 235 -19 61 -5 137 -14 170 -20
33 -6 96 -15 140 -21 115 -14 186 -26 257 -43 35 -8 99 -22 143 -32 44 -9 118
-29 165 -45 47 -15 143 -45 213 -65 70 -20 149 -45 175 -55 26 -10 81 -30 122
-46 41 -15 90 -39 108 -52 l32 -24 0 -652 c0 -358 3 -675 6 -704 l7 -52 396 2
396 3 2 1519 c1 1089 5 1533 13 1570 6 28 15 87 20 131 13 126 70 354 127 510
29 77 127 272 165 327 10 14 18 29 18 33 0 4 12 21 26 39 14 17 57 74 96 126
156 208 407 419 678 567 124 68 430 173 590 202 295 55 84 51 3255 51 2832 0
2934 1 3040 19 103 18 133 28 275 95 110 52 273 179 333 259 21 29 51 66 66
82 73 79 181 295 181 360 l0 45 -3272 0 c-2091 0 -3316 -3 -3393 -10 -260 -21
-343 -30 -425 -44 -47 -8 -112 -20 -145 -26 -33 -5 -103 -23 -155 -39 -52 -16
-124 -36 -160 -46 -36 -9 -81 -23 -100 -31 -19 -7 -69 -25 -110 -39 -41 -14
-90 -35 -110 -45 -19 -10 -57 -28 -85 -40 -72 -30 -111 -50 -190 -95 -38 -22
-91 -51 -118 -65 -108 -57 -356 -244 -488 -370 -298 -282 -483 -535 -664 -907
-30 -62 -55 -117 -55 -123 0 -5 -13 -38 -28 -72 -55 -122 -88 -231 -127 -423
-58 -279 -67 -377 -69 -814 -3 -361 -4 -385 -21 -397 -32 -23 -79 -16 -251 40
-43 14 -104 32 -134 40 -30 8 -95 27 -145 42 -128 37 -285 74 -321 74 -17 0
-51 7 -74 15 -23 8 -64 15 -89 15 -26 0 -73 7 -104 15 -32 8 -90 15 -130 16
-40 0 -97 5 -127 10 -30 5 -114 13 -186 17 -161 10 -173 16 -217 115 -17 40
-81 169 -141 287 -141 278 -206 408 -206 414 0 3 -63 135 -141 293 -289 590
-339 693 -442 903 -57 118 -159 328 -226 465 -68 138 -142 291 -166 340 -157
327 -217 443 -240 465 l-27 25 -366 2 c-202 1 -387 -2 -411 -6z"/>
<path d="M14541 11189 c-35 -12 -80 -31 -100 -43 -20 -12 -58 -33 -86 -47 -30
-14 -82 -57 -130 -105 -66 -67 -89 -100 -132 -185 -28 -57 -56 -122 -63 -144
-22 -78 -25 -418 -20 -2230 l5 -1830 415 0 415 0 0 2286 c0 1923 -2 2289 -14
2302 -21 26 -204 23 -290 -4z"/>
<path d="M9635 9664 c-14 -15 -16 -56 -13 -385 3 -338 4 -370 21 -386 16 -17
46 -18 385 -18 428 0 487 7 633 80 81 40 281 190 292 219 3 7 31 46 63 87 79
100 100 137 179 318 28 66 33 86 23 92 -7 5 -363 9 -790 9 -702 0 -778 -2
-793 -16z"/>
<path d="M6305 8011 c-3 -6 -3 -21 0 -34 8 -25 71 -164 86 -187 5 -8 12 -22
15 -30 11 -27 32 -72 95 -205 34 -71 84 -177 111 -235 28 -58 72 -150 99 -206
27 -55 49 -103 49 -106 0 -6 94 -208 153 -328 18 -36 37 -68 42 -72 14 -10
903 -10 909 0 4 7 -81 183 -179 370 -37 71 -361 731 -414 845 -44 91 -56 97
-328 142 -46 8 -87 16 -92 19 -11 7 -266 27 -417 33 -82 3 -124 1 -129 -6z"/>
</g>
</svg>
