<svg xmlns="http://www.w3.org/2000/svg" viewBox="0 0 100 100" role="img" aria-label="Dzidzo SMS">
  <defs>
    <linearGradient id="dzg" x1="0%" y1="0%" x2="100%" y2="100%">
      <stop offset="0%" stop-color="#6ee7b7"/>
      <stop offset="100%" stop-color="#059669"/>
    </linearGradient>
  </defs>
  <rect width="100" height="100" rx="22" fill="#0c1222"/>
  <path fill="url(#dzg)" d="M28 30c0-2.2 1.8-4 4-4h18v44H32c-2.2 0-4-1.8-4-4V30zm26-4h18c2.2 0 4 1.8 4 4v32c0 2.2-1.8 4-4 4H54V26z"/>
  <path fill="#ecfdf5" d="M38 38h8v3h-8v-3zm0 8h12v3H38v-3zm0 8h10v3H38v-3zm18-16h8v3h-8v-3zm0 8h10v3H56v-3z" opacity=".9"/>
</svg>
